<svg width="574" height="574" viewBox="0 0 574 574" fill="none" xmlns="http://www.w3.org/2000/svg">
<g filter="url(#filter0_b_1038_3047)">
<rect width="574" height="574" rx="90" fill="#D9D9D9" fill-opacity="0.48"/>
</g>
<path d="M294.545 207.091V208.091H295.545H308.673C315.337 208.091 320.8 213.567 320.8 220.263V259.779C320.8 266.474 315.337 271.951 308.673 271.951H295.545H294.545V272.951V286.123C294.545 300.195 283.307 311.467 269.291 311.467H85.5091C78.8123 311.467 72.389 308.797 67.6526 304.045C62.9161 299.292 60.2545 292.845 60.2545 286.123V272.951V271.951H59.2545H46.1273C39.4628 271.951 34 266.474 34 259.779V220.263C34 213.567 39.4628 208.091 46.1273 208.091H59.2545H60.2545V207.091C60.2545 156.664 100.898 115.887 151.145 115.887H164.273H165.273V114.887V98.1585V97.5768L164.767 97.2892C157.199 92.9859 152.145 84.7535 152.145 75.371V75.37C152.141 70.9194 153.304 66.5463 155.518 62.6904C157.732 58.8345 160.919 55.632 164.757 53.4045C168.595 51.1769 172.95 50.0029 177.384 50C181.817 49.9972 186.174 51.1656 190.015 53.3882C193.856 55.6108 197.047 58.8093 199.265 62.6623C201.484 66.5153 202.653 70.8869 202.655 75.3375C202.656 79.788 201.489 84.1602 199.272 88.0144C197.055 91.8686 193.866 95.0686 190.026 97.2932L189.527 97.5821V98.1585V114.887V115.887H190.527H203.655C253.902 115.887 294.545 156.664 294.545 207.091ZM99.2387 199.707L98.6305 199.248L98.0266 199.712C89.9239 205.945 84.5091 215.713 84.5091 226.849C84.5091 235.846 88.0712 244.476 94.413 250.84C100.755 257.203 109.357 260.779 118.327 260.779C132.797 260.779 145.385 251.555 149.858 238.77L150.099 238.081L149.516 237.642L99.2387 199.707ZM205.284 237.642L204.701 238.081L204.942 238.77C209.415 251.555 222.003 260.779 236.473 260.779C245.443 260.779 254.045 257.203 260.387 250.84C266.729 244.476 270.291 235.846 270.291 226.849C270.291 215.713 264.876 205.945 256.773 199.712L256.17 199.248L255.561 199.707L205.284 237.642Z" fill="white" stroke="white" stroke-width="2"/>
<path d="M206.419 492.919H206.169L206.019 493.119C196.066 506.384 182.204 516.178 166.392 521.117C150.581 526.056 133.621 525.889 117.909 520.641C102.198 515.393 88.5295 505.329 78.8376 491.871C69.1457 478.414 63.9203 462.244 63.9004 445.647V302.833H254.091C341.214 302.833 412.5 374.266 412.5 461.571V492.919H378.517H378.162L378.045 493.254C371.598 511.689 354.145 524.767 333.546 524.767C323.787 524.772 314.266 521.744 306.296 516.1C298.326 510.455 292.299 502.473 289.046 493.253L288.928 492.919H288.575H206.419ZM381.219 462.071H381.758L381.717 461.534C380.442 444.601 376.456 428.301 369.755 413.593L369.622 413.3H369.3H286.373V382.452H349.437H350.524L349.816 381.627C324.619 352.222 287.616 333.681 246.146 333.681H95.1822H94.6822V334.181V381.952V382.953L95.4823 382.352C108.299 372.735 123.729 367.248 139.728 366.619C155.726 365.989 171.538 370.247 185.068 378.828C198.597 387.408 209.204 399.906 215.484 414.666C221.764 429.425 223.419 445.748 220.23 461.472L220.109 462.071H220.72H381.219ZM191.028 445.648C191.028 418.939 169.511 397.376 142.855 397.376C116.199 397.376 94.6822 418.939 94.6822 445.648C94.6822 472.356 116.199 493.919 142.855 493.919C169.511 493.919 191.028 472.356 191.028 445.648Z" fill="white" stroke="white"/>
<path d="M435.909 223.818H410.273C410.091 221.697 409.606 219.773 408.818 218.045C408.061 216.318 407 214.833 405.636 213.591C404.303 212.318 402.682 211.348 400.773 210.682C398.864 209.985 396.697 209.636 394.273 209.636C390.03 209.636 386.439 210.667 383.5 212.727C380.591 214.788 378.379 217.742 376.864 221.591C375.379 225.439 374.636 230.061 374.636 235.455C374.636 241.152 375.394 245.924 376.909 249.773C378.455 253.591 380.682 256.47 383.591 258.409C386.5 260.318 390 261.273 394.091 261.273C396.424 261.273 398.515 260.985 400.364 260.409C402.212 259.803 403.818 258.939 405.182 257.818C406.545 256.697 407.652 255.348 408.5 253.773C409.379 252.167 409.97 250.364 410.273 248.364L435.909 248.545C435.606 252.485 434.5 256.5 432.591 260.591C430.682 264.652 427.97 268.409 424.455 271.864C420.97 275.288 416.652 278.045 411.5 280.136C406.348 282.227 400.364 283.273 393.545 283.273C385 283.273 377.333 281.439 370.545 277.773C363.788 274.106 358.439 268.712 354.5 261.591C350.591 254.47 348.636 245.758 348.636 235.455C348.636 225.091 350.636 216.364 354.636 209.273C358.636 202.152 364.03 196.773 370.818 193.136C377.606 189.47 385.182 187.636 393.545 187.636C399.424 187.636 404.833 188.439 409.773 190.045C414.712 191.652 419.045 194 422.773 197.091C426.5 200.152 429.5 203.924 431.773 208.409C434.045 212.894 435.424 218.03 435.909 223.818ZM447.375 282V188.909H487.557C494.466 188.909 500.511 190.167 505.693 192.682C510.875 195.197 514.905 198.818 517.784 203.545C520.663 208.273 522.102 213.939 522.102 220.545C522.102 227.212 520.617 232.833 517.648 237.409C514.708 241.985 510.572 245.439 505.239 247.773C499.936 250.106 493.739 251.273 486.648 251.273H462.648V231.636H481.557C484.527 231.636 487.057 231.273 489.148 230.545C491.269 229.788 492.89 228.591 494.011 226.955C495.163 225.318 495.739 223.182 495.739 220.545C495.739 217.879 495.163 215.712 494.011 214.045C492.89 212.348 491.269 211.106 489.148 210.318C487.057 209.5 484.527 209.091 481.557 209.091H472.648V282H447.375ZM501.92 239.273L525.193 282H497.739L475.011 239.273H501.92Z" fill="white"/>
<defs>
<filter id="filter0_b_1038_3047" x="-15" y="-15" width="604" height="604" filterUnits="userSpaceOnUse" color-interpolation-filters="sRGB">
<feFlood flood-opacity="0" result="BackgroundImageFix"/>
<feGaussianBlur in="BackgroundImageFix" stdDeviation="7.5"/>
<feComposite in2="SourceAlpha" operator="in" result="effect1_backgroundBlur_1038_3047"/>
<feBlend mode="normal" in="SourceGraphic" in2="effect1_backgroundBlur_1038_3047" result="shape"/>
</filter>
</defs>
</svg>
