# Blender v3.3.1 OBJ File: ''
# www.blender.org
mtllib Rotateline.mtl
o Curve
v 0.015257 0.000000 -0.015215
v 0.014596 0.000000 -0.015201
v 0.013937 0.000000 -0.015159
v 0.013282 0.000000 -0.015089
v 0.012632 0.000000 -0.014990
v 0.011987 0.000000 -0.014863
v 0.011349 0.000000 -0.014708
v 0.010718 0.000000 -0.014525
v 0.010095 0.000000 -0.014315
v 0.009481 0.000000 -0.014078
v 0.008878 0.000000 -0.013814
v 0.008285 0.000000 -0.013523
v 0.007705 0.000000 -0.013206
v 0.007139 0.000000 -0.012864
v 0.006589 0.000000 -0.012498
v 0.006058 0.000000 -0.012109
v 0.005544 0.000000 -0.011698
v 0.005050 0.000000 -0.011266
v 0.004574 0.000000 -0.010812
v 0.004119 0.000000 -0.010338
v 0.003685 0.000000 -0.009845
v 0.003273 0.000000 -0.009333
v 0.002882 0.000000 -0.008802
v 0.002515 0.000000 -0.008254
v 0.002171 0.000000 -0.007689
v 0.001852 0.000000 -0.007109
v 0.001560 0.000000 -0.006518
v 0.001294 0.000000 -0.005915
v 0.001055 0.000000 -0.005303
v 0.000843 0.000000 -0.004681
v 0.000659 0.000000 -0.004050
v 0.000502 0.000000 -0.003412
v 0.000373 0.000000 -0.002768
v 0.000272 0.000000 -0.002118
v 0.000200 0.000000 -0.001464
v 0.000156 0.000000 -0.000805
v 0.000141 0.000000 -0.000144
v 0.000184 0.000000 -0.000144
v 0.000302 0.000000 -0.000144
v 0.000481 0.000000 -0.000144
v 0.000705 0.000000 -0.000144
v 0.000959 0.000000 -0.000144
v 0.001228 0.000000 -0.000144
v 0.001497 0.000000 -0.000144
v 0.001751 0.000000 -0.000144
v 0.001975 0.000000 -0.000144
v 0.002153 0.000000 -0.000144
v 0.002272 0.000000 -0.000144
v 0.002314 0.000000 -0.000144
v 0.002346 0.000000 -0.000995
v 0.002433 0.000000 -0.001837
v 0.002574 0.000000 -0.002668
v 0.002769 0.000000 -0.003486
v 0.003017 0.000000 -0.004288
v 0.003315 0.000000 -0.005071
v 0.003664 0.000000 -0.005833
v 0.004062 0.000000 -0.006571
v 0.004509 0.000000 -0.007284
v 0.005002 0.000000 -0.007968
v 0.005542 0.000000 -0.008620
v 0.006127 0.000000 -0.009239
v 0.006751 0.000000 -0.009818
v 0.007409 0.000000 -0.010352
v 0.008097 0.000000 -0.010840
v 0.008813 0.000000 -0.011280
v 0.009555 0.000000 -0.011671
v 0.010321 0.000000 -0.012014
v 0.011106 0.000000 -0.012305
v 0.011910 0.000000 -0.012546
v 0.012730 0.000000 -0.012733
v 0.013563 0.000000 -0.012868
v 0.014406 0.000000 -0.012947
v 0.015257 0.000000 -0.012971
v 0.015257 0.000000 -0.013015
v 0.015257 0.000000 -0.013137
v 0.015257 0.000000 -0.013322
v 0.015257 0.000000 -0.013553
v 0.015257 0.000000 -0.013815
v 0.015257 0.000000 -0.014093
v 0.015257 0.000000 -0.014371
v 0.015257 0.000000 -0.014633
v 0.015257 0.000000 -0.014864
v 0.015257 0.000000 -0.015048
v 0.015257 0.000000 -0.015170
vt 0.012048 0.000000
vt 1.000000 0.000000
vt 0.000000 0.000000
vt 0.024096 0.000000
vt 0.987952 0.000000
vt 0.036145 0.000000
vt 0.048193 0.000000
vt 0.975904 0.000000
vt 0.060241 0.000000
vt 0.963855 0.000000
vt 0.072289 0.000000
vt 0.084337 0.000000
vt 0.951807 0.000000
vt 0.096386 0.000000
vt 0.939759 0.000000
vt 0.108434 0.000000
vt 0.927711 0.000000
vt 0.120482 0.000000
vt 0.915663 0.000000
vt 0.132530 0.000000
vt 0.903614 0.000000
vt 0.144578 0.000000
vt 0.891566 0.000000
vt 0.156627 0.000000
vt 0.879518 0.000000
vt 0.867470 0.000000
vt 0.855422 0.000000
vt 0.843373 0.000000
vt 0.831325 0.000000
vt 0.168675 0.000000
vt 0.819277 0.000000
vt 0.807229 0.000000
vt 0.180723 0.000000
vt 0.795181 0.000000
vt 0.192771 0.000000
vt 0.783133 0.000000
vt 0.204819 0.000000
vt 0.771084 0.000000
vt 0.759036 0.000000
vt 0.216867 0.000000
vt 0.746988 0.000000
vt 0.228916 0.000000
vt 0.734940 0.000000
vt 0.240964 0.000000
vt 0.253012 0.000000
vt 0.722892 0.000000
vt 0.265060 0.000000
vt 0.710843 0.000000
vt 0.277108 0.000000
vt 0.698795 0.000000
vt 0.289157 0.000000
vt 0.686747 0.000000
vt 0.301205 0.000000
vt 0.674699 0.000000
vt 0.313253 0.000000
vt 0.662651 0.000000
vt 0.325301 0.000000
vt 0.337349 0.000000
vt 0.650602 0.000000
vt 0.349398 0.000000
vt 0.638554 0.000000
vt 0.361446 0.000000
vt 0.626506 0.000000
vt 0.373494 0.000000
vt 0.614458 0.000000
vt 0.385542 0.000000
vt 0.397590 0.000000
vt 0.602410 0.000000
vt 0.409639 0.000000
vt 0.590361 0.000000
vt 0.421687 0.000000
vt 0.578313 0.000000
vt 0.433735 0.000000
vt 0.445783 0.000000
vt 0.457831 0.000000
vt 0.469880 0.000000
vt 0.481928 0.000000
vt 0.493976 0.000000
vt 0.506024 0.000000
vt 0.518072 0.000000
vt 0.530120 0.000000
vt 0.542169 0.000000
vt 0.554217 0.000000
vt 0.566265 0.000000
vn 0.0000 1.0000 0.0000
vn 0.0000 0.0000 1.0000
usemtl SVGMat
s off
f 2/1/1 84/2/1 1/3/1
f 3/4/1 84/2/1 2/1/1
f 3/4/1 83/5/1 84/2/1
f 4/6/1 83/5/1 3/4/1
f 5/7/1 83/5/1 4/6/1
f 5/7/1 82/8/1 83/5/1
f 6/9/1 82/8/1 5/7/1
f 6/9/1 81/10/1 82/8/1
f 7/11/1 81/10/1 6/9/1
f 8/12/1 81/10/1 7/11/1
f 8/12/1 80/13/1 81/10/1
f 9/14/1 80/13/1 8/12/1
f 9/14/1 79/15/1 80/13/1
f 10/16/1 79/15/1 9/14/1
f 10/16/1 78/17/1 79/15/1
f 11/18/1 78/17/1 10/16/1
f 11/18/1 77/19/1 78/17/1
f 12/20/1 77/19/1 11/18/1
f 12/20/1 76/21/1 77/19/1
f 13/22/1 76/21/1 12/20/1
f 13/22/1 75/23/1 76/21/1
f 14/24/1 75/23/1 13/22/1
f 14/24/1 74/25/1 75/23/1
f 14/24/1 73/26/1 74/25/1
f 14/24/1 72/27/1 73/26/1
f 14/24/1 71/28/1 72/27/1
f 14/24/1 70/29/1 71/28/1
f 15/30/1 70/29/1 14/24/1
f 15/30/1 69/31/1 70/29/1
f 15/30/1 68/32/1 69/31/1
f 16/33/1 68/32/1 15/30/1
f 16/33/1 67/34/1 68/32/1
f 17/35/1 67/34/1 16/33/1
f 17/35/1 66/36/1 67/34/1
f 18/37/1 66/36/1 17/35/1
f 18/37/1 65/38/1 66/36/1
f 18/37/1 64/39/1 65/38/1
f 19/40/1 64/39/1 18/37/1
f 19/40/1 63/41/1 64/39/1
f 20/42/1 63/41/1 19/40/1
f 20/42/1 62/43/1 63/41/1
f 21/44/1 62/43/1 20/42/1
f 22/45/1 62/43/1 21/44/1
f 22/45/1 61/46/1 62/43/1
f 23/47/1 61/46/1 22/45/1
f 23/47/1 60/48/1 61/46/1
f 24/49/1 60/48/1 23/47/1
f 24/49/1 59/50/1 60/48/1
f 25/51/1 59/50/1 24/49/1
f 25/51/1 58/52/1 59/50/1
f 26/53/1 58/52/1 25/51/1
f 26/53/1 57/54/1 58/52/1
f 27/55/1 57/54/1 26/53/1
f 27/55/1 56/56/1 57/54/1
f 28/57/1 56/56/1 27/55/1
f 29/58/1 56/56/1 28/57/1
f 29/58/1 55/59/1 56/56/1
f 30/60/1 55/59/1 29/58/1
f 30/60/1 54/61/1 55/59/1
f 31/62/1 54/61/1 30/60/1
f 31/62/1 53/63/1 54/61/1
f 32/64/1 53/63/1 31/62/1
f 32/64/1 52/65/1 53/63/1
f 33/66/1 52/65/1 32/64/1
f 34/67/1 52/65/1 33/66/1
f 34/67/1 51/68/1 52/65/1
f 35/69/1 51/68/1 34/67/1
f 35/69/1 50/70/1 51/68/1
f 36/71/1 50/70/1 35/69/1
f 36/71/1 49/72/1 50/70/1
f 37/73/1 49/72/1 36/71/1
f 38/74/2 49/72/2 37/73/2
f 39/75/2 49/72/2 38/74/2
f 40/76/2 49/72/2 39/75/2
f 41/77/2 49/72/2 40/76/2
f 42/78/2 49/72/2 41/77/2
f 43/79/2 49/72/2 42/78/2
f 44/80/2 49/72/2 43/79/2
f 45/81/2 49/72/2 44/80/2
f 46/82/2 49/72/2 45/81/2
f 47/83/2 49/72/2 46/82/2
f 48/84/2 49/72/2 47/83/2
