<svg width="29" height="86" viewBox="0 0 29 86" fill="none" xmlns="http://www.w3.org/2000/svg">
<path d="M0 5C0 2.23858 2.23858 0 5 0H29V86H5C2.23858 86 0 83.7614 0 81V5Z" fill="white" fill-opacity="0.4"/>
<path d="M14 53.9293V54.9861C13.696 55.0486 13.429 55.158 13.1989 55.3142C12.9688 55.4676 12.7756 55.6551 12.6193 55.8767C12.4602 56.0955 12.3409 56.3384 12.2614 56.6054C12.1818 56.8725 12.142 57.1509 12.142 57.4406C12.142 57.9691 12.2756 58.4477 12.5426 58.8767C12.8097 59.3029 13.2031 59.6423 13.723 59.8952C14.2429 60.1452 14.8807 60.2702 15.6364 60.2702C16.392 60.2702 17.0298 60.1452 17.5497 59.8952C18.0696 59.6423 18.4631 59.3029 18.7301 58.8767C18.9972 58.4477 19.1307 57.9691 19.1307 57.4406C19.1307 57.1509 19.0909 56.8725 19.0114 56.6054C18.9318 56.3384 18.8139 56.0955 18.6577 55.8767C18.4986 55.6551 18.304 55.4676 18.0739 55.3142C17.8409 55.158 17.5739 55.0486 17.2727 54.9861V53.9293C17.7187 54.0088 18.1179 54.1537 18.4702 54.3639C18.8224 54.5742 19.1222 54.8355 19.3693 55.148C19.6136 55.4605 19.7997 55.8114 19.9276 56.2006C20.0554 56.587 20.1193 57.0003 20.1193 57.4406C20.1193 58.185 19.9375 58.8469 19.5739 59.4264C19.2102 60.006 18.6932 60.462 18.0227 60.7943C17.3523 61.1267 16.5568 61.2929 15.6364 61.2929C14.7159 61.2929 13.9205 61.1267 13.25 60.7943C12.5795 60.462 12.0625 60.006 11.6989 59.4264C11.3352 58.8469 11.1534 58.185 11.1534 57.4406C11.1534 57.0003 11.2173 56.587 11.3452 56.2006C11.473 55.8114 11.6605 55.4605 11.9077 55.148C12.152 54.8355 12.4503 54.5742 12.8026 54.3639C13.152 54.1537 13.5511 54.0088 14 53.9293ZM15.6364 44.3779C16.5568 44.3779 17.3523 44.5441 18.0227 44.8765C18.6932 45.2089 19.2102 45.6648 19.5739 46.2444C19.9375 46.8239 20.1193 47.4859 20.1193 48.2302C20.1193 48.9745 19.9375 49.6364 19.5739 50.216C19.2102 50.7955 18.6932 51.2515 18.0227 51.5839C17.3523 51.9163 16.5568 52.0824 15.6364 52.0824C14.7159 52.0824 13.9205 51.9163 13.25 51.5839C12.5795 51.2515 12.0625 50.7955 11.6989 50.216C11.3352 49.6364 11.1534 48.9745 11.1534 48.2302C11.1534 47.4859 11.3352 46.8239 11.6989 46.2444C12.0625 45.6648 12.5795 45.2089 13.25 44.8765C13.9205 44.5441 14.7159 44.3779 15.6364 44.3779ZM15.6364 45.4006C14.8807 45.4006 14.2429 45.5271 13.723 45.7799C13.2031 46.0299 12.8097 46.3694 12.5426 46.7984C12.2756 47.2245 12.142 47.7018 12.142 48.2302C12.142 48.7586 12.2756 49.2373 12.5426 49.6663C12.8097 50.0924 13.2031 50.4319 13.723 50.6847C14.2429 50.9347 14.8807 51.0597 15.6364 51.0597C16.392 51.0597 17.0298 50.9347 17.5497 50.6847C18.0696 50.4319 18.4631 50.0924 18.7301 49.6663C18.9972 49.2373 19.1307 48.7586 19.1307 48.2302C19.1307 47.7018 18.9972 47.2245 18.7301 46.7984C18.4631 46.3694 18.0696 46.0299 17.5497 45.7799C17.0298 45.5271 16.392 45.4006 15.6364 45.4006ZM20 42.1209H11.2727V41.0641H19.0625V37.0073H20V42.1209ZM15.6364 27.8671C16.5568 27.8671 17.3523 28.0333 18.0227 28.3657C18.6932 28.6981 19.2102 29.1541 19.5739 29.7336C19.9375 30.3131 20.1193 30.9751 20.1193 31.7194C20.1193 32.4637 19.9375 33.1256 19.5739 33.7052C19.2102 34.2847 18.6932 34.7407 18.0227 35.0731C17.3523 35.4055 16.5568 35.5717 15.6364 35.5717C14.7159 35.5717 13.9205 35.4055 13.25 35.0731C12.5795 34.7407 12.0625 34.2847 11.6989 33.7052C11.3352 33.1256 11.1534 32.4637 11.1534 31.7194C11.1534 30.9751 11.3352 30.3131 11.6989 29.7336C12.0625 29.1541 12.5795 28.6981 13.25 28.3657C13.9205 28.0333 14.7159 27.8671 15.6364 27.8671ZM15.6364 28.8898C14.8807 28.8898 14.2429 29.0163 13.723 29.2691C13.2031 29.5191 12.8097 29.8586 12.5426 30.2876C12.2756 30.7137 12.142 31.191 12.142 31.7194C12.142 32.2478 12.2756 32.7265 12.5426 33.1555C12.8097 33.5816 13.2031 33.9211 13.723 34.1739C14.2429 34.4239 14.8807 34.5489 15.6364 34.5489C16.392 34.5489 17.0298 34.4239 17.5497 34.1739C18.0696 33.9211 18.4631 33.5816 18.7301 33.1555C18.9972 32.7265 19.1307 32.2478 19.1307 31.7194C19.1307 31.191 18.9972 30.7137 18.7301 30.2876C18.4631 29.8586 18.0696 29.5191 17.5497 29.2691C17.0298 29.0163 16.392 28.8898 15.6364 28.8898ZM20 25.6101H11.2727V22.6613C11.2727 21.9795 11.3892 21.4198 11.6222 20.9823C11.8523 20.5448 12.169 20.2209 12.5724 20.0107C12.9759 19.8005 13.4347 19.6954 13.9489 19.6954C14.4631 19.6954 14.919 19.8005 15.3168 20.0107C15.7145 20.2209 16.027 20.5434 16.2543 20.978C16.4787 21.4127 16.5909 21.9681 16.5909 22.6442V25.0306H15.6364V22.6783C15.6364 22.2124 15.5682 21.8374 15.4318 21.5533C15.2955 21.2664 15.1023 21.059 14.8523 20.9312C14.5994 20.8005 14.2983 20.7351 13.9489 20.7351C13.5994 20.7351 13.294 20.8005 13.0327 20.9312C12.7713 21.0618 12.5696 21.2706 12.4276 21.5576C12.2827 21.8445 12.2102 22.2238 12.2102 22.6954V24.5533H20V25.6101ZM16.0795 21.5022L20 19.3545V20.5817L16.0795 22.6954V21.5022Z" fill="white"/>
</svg>
